<?xml version="1.0" encoding="UTF-8" standalone="no"?>
<svg
   width="72.888268mm"
   height="64.999969mm"
   viewBox="0 0 72.888268 64.999969"
   version="1.1"
   id="svg5"
   xml:space="preserve"
   xmlns="http://www.w3.org/2000/svg"
   xmlns:svg="http://www.w3.org/2000/svg"><defs
     id="defs9"><clipPath
       clipPathUnits="userSpaceOnUse"
       id="clipPath32179"><path
         style="display:none;fill:#000000;fill-opacity:1;stroke:none;stroke-width:4.99999;stroke-dasharray:none;stroke-opacity:1;paint-order:markers fill stroke"
         d="m -86.61055,417.757 h 14.999999 v -4.99999 c 0,-10.3047 -15.000449,-10.29388 -15.000449,0 h -6.000001 v 4.99999 z"
         id="path32181" /><path
         id="lpe_path-effect32183"
         style="fill:#000000;fill-opacity:1;stroke:none;stroke-width:4.99999;stroke-dasharray:none;stroke-opacity:1;paint-order:markers fill stroke"
         class="powerclip"
         d="m -99.11055,395.00577 h 40 v 52.75161 h -40 z m 12.5,22.75123 h 14.999999 v -4.99999 c 0,-10.3047 -15.000449,-10.29388 -15.000449,0 h -6.000001 v 4.99999 z" /></clipPath></defs><path
     style="fill:none;stroke:#ffffff;stroke-width:4.99999;stroke-dasharray:none;stroke-opacity:1;paint-order:markers fill stroke"
     id="path4424-7"
     d="m 66.443996,32.499989 a 30,30 0 0 1 -30,30" /><path
     style="fill:none;stroke:#ffffff;stroke-width:4.99999;stroke-dasharray:none;stroke-opacity:1;paint-order:markers fill stroke"
     id="path4424-3-9"
     d="M -6.4439964,-32.499989 A 30,30 0 0 1 -36.443996,-2.4999886"
     transform="scale(-1)" /><path
     style="fill:#ffffff;fill-opacity:1;stroke:none;stroke-width:4.99999;stroke-dasharray:none;stroke-opacity:1;paint-order:markers fill stroke"
     d="m 63.943996,32.5 v -10 l 8.944264,17.56981 z"
     id="path12902-2" /><path
     style="fill:#ffffff;fill-opacity:1;stroke:none;stroke-width:4.99999;stroke-dasharray:none;stroke-opacity:1;paint-order:markers fill stroke"
     d="m 8.944256,32.49981 v 10 L -4.0367917e-6,24.93 Z"
     id="path12902-6-0" /><path
     style="fill:#ffffff;fill-opacity:1;stroke:none;stroke-width:4.99999;stroke-dasharray:none;stroke-opacity:1;paint-order:markers fill stroke"
     d="m -94.11055,442.75738 v -25 h 2.5 v -5 c 0,-16.98892 25,-17.01537 25,0 v 5 h 2.5 v 25 z"
     id="path31345-2"
     clip-path="url(#clipPath32179)"
     transform="translate(115.55455,-391.75938)" /></svg>
