<?xml version="1.0" encoding="UTF-8" standalone="no"?>
<svg
   width="72.888245mm"
   height="65mm"
   viewBox="0 0 72.888245 65"
   version="1.1"
   id="svg5"
   xml:space="preserve"
   xmlns="http://www.w3.org/2000/svg"
   xmlns:svg="http://www.w3.org/2000/svg"><defs
     id="defs9"><clipPath
       clipPathUnits="userSpaceOnUse"
       id="clipPath32171"><path
         style="display:none;fill:#000000;fill-opacity:1;stroke:none;stroke-width:4.99999;stroke-dasharray:none;stroke-opacity:1;paint-order:markers fill stroke"
         d="m -192.5,417.498 h 15 v -4.99999 c 0,-10.3047 -15,-10.29351 -15,0 z"
         id="path32173" /><path
         id="lpe_path-effect32175"
         style="fill:#000000;fill-opacity:1;stroke:none;stroke-width:4.99999;stroke-dasharray:none;stroke-opacity:1;paint-order:markers fill stroke"
         class="powerclip"
         d="m -205,394.74639 h 40 V 447.498 h -40 z m 12.5,22.75161 h 15 v -4.99999 c 0,-10.3047 -15,-10.29351 -15,0 z" /></clipPath></defs><path
     style="fill:none;stroke:#ffffff;stroke-width:4.99999;stroke-dasharray:none;stroke-opacity:1;paint-order:markers fill stroke"
     id="path4424"
     d="m 66.443993,32.499989 a 30,30 0 0 1 -30,30" /><path
     style="fill:none;stroke:#ffffff;stroke-width:4.99999;stroke-dasharray:none;stroke-opacity:1;paint-order:markers fill stroke"
     id="path4424-3"
     d="M -6.4439926,-32.499989 A 30,30 0 0 1 -36.443993,-2.4999886"
     transform="scale(-1)" /><path
     style="fill:#ffffff;fill-opacity:1;stroke:none;stroke-width:4.99999;stroke-dasharray:none;stroke-opacity:1;paint-order:markers fill stroke"
     d="m 63.943992,32.499989 v -10 l 8.94426,17.56981 z"
     id="path12902" /><path
     style="fill:#ffffff;fill-opacity:1;stroke:none;stroke-width:4.99999;stroke-dasharray:none;stroke-opacity:1;paint-order:markers fill stroke"
     d="m 8.9442522,32.499799 v 10 L -7.8193041e-6,24.929989 Z"
     id="path12902-6" /><path
     style="fill:#ffffff;fill-opacity:1;stroke:none;stroke-width:4.99999;stroke-dasharray:none;stroke-opacity:1;paint-order:markers fill stroke"
     d="m -200,442.498 v -25 h 2.5 v -5 c 0,-16.98892 25,-17.01537 25,0 v 5 h 2.5 v 25 z"
     id="path31345"
     clip-path="url(#clipPath32171)"
     transform="translate(221.44399,-391.50001)" /></svg>
