<?xml version="1.0" encoding="UTF-8" standalone="no"?>
<svg
   width="70.710678mm"
   height="50mm"
   viewBox="0 0 70.710678 50"
   version="1.1"
   id="svg5"
   xmlns="http://www.w3.org/2000/svg"
   xmlns:svg="http://www.w3.org/2000/svg">
  <defs
     id="defs9">
    <clipPath
       clipPathUnits="userSpaceOnUse"
       id="clipPath2748">
      <path
         style="display:none;fill:#000000;fill-opacity:1;stroke:none;stroke-width:5.01436;stroke-opacity:1;paint-order:markers fill stroke"
         d="m -175.251,13.536241 7.07038,7.070379 -7.07038,7.070379 3.53624,3.536241 7.07038,-7.070379 7.0705,7.07026 3.536,-3.536 -7.07026,-7.070501 7.07026,-7.0705 -3.536,-3.536 -7.0705,7.070259 L -171.71476,10 Z"
         id="path2750" />
      <path
         id="lpe_path-effect2752"
         style="display:inline;fill:#000000;fill-opacity:1;stroke:none;stroke-width:5.01436;stroke-opacity:1;paint-order:markers fill stroke"
         class="powerclip"
         d="m -204.99999,-5 h 80.71067 v 60 h -80.71067 z m 29.74899,18.536241 7.07038,7.070379 -7.07038,7.070379 3.53624,3.536241 7.07038,-7.070379 7.0705,7.07026 3.536,-3.536 -7.07026,-7.070501 7.07026,-7.0705 -3.536,-3.536 -7.0705,7.070259 L -171.71476,10 Z" />
    </clipPath>
  </defs>
  <g
     id="g28205"
     transform="translate(199.99998)">
    <path
       style="fill:#ffffff;stroke-width:0.143821"
       id="path167-7"
       mask="none"
       d="m -199.99999,14.644662 a 50,50 0 0 1 70.71067,-3e-6 L -164.64465,50 Z"
       clip-path="url(#clipPath2748)" />
  </g>
</svg>
