<?xml version="1.0" encoding="UTF-8" standalone="no"?>
<svg
   width="70.710678mm"
   height="50.000008mm"
   viewBox="0 0 70.710678 50.000008"
   version="1.1"
   id="svg5"
   xmlns="http://www.w3.org/2000/svg"
   xmlns:svg="http://www.w3.org/2000/svg">
  <defs
     id="defs9">
    <clipPath
       clipPathUnits="userSpaceOnUse"
       id="clipPath2772">
      <path
         style="display:none;fill:#000000;fill-opacity:1;stroke:none;stroke-width:5.01436;stroke-opacity:1;paint-order:markers fill stroke"
         d="m -175.251,123.53624 7.07038,7.07038 -7.07038,7.07038 3.53624,3.53624 7.07038,-7.07038 7.0705,7.07026 3.536,-3.536 -7.07026,-7.0705 7.07026,-7.0705 -3.536,-3.536 -7.0705,7.07026 L -171.71476,120 Z"
         id="path2774" />
      <path
         id="lpe_path-effect2780"
         style="display:inline;fill:#000000;fill-opacity:1;stroke:none;stroke-width:5.01436;stroke-opacity:1;paint-order:markers fill stroke"
         class="powerclip"
         d="m -187.322,130 h 45.35534 v 35 H -187.322 Z m 12.071,-6.46376 7.07038,7.07038 -7.07038,7.07038 3.53624,3.53624 7.07038,-7.07038 7.0705,7.07026 3.536,-3.536 -7.07026,-7.0705 7.07026,-7.0705 -3.536,-3.536 -7.0705,7.07026 L -171.71476,120 Z" />
    </clipPath>
    <clipPath
       clipPathUnits="userSpaceOnUse"
       id="clipPath2776">
      <path
         style="display:none;fill:#000000;fill-opacity:1;stroke:none;stroke-width:5.01436;stroke-opacity:1;paint-order:markers fill stroke"
         d="m -175.251,123.53624 7.07038,7.07038 -7.07038,7.07038 3.53624,3.53624 7.07038,-7.07038 7.0705,7.07026 3.536,-3.536 -7.07026,-7.0705 7.07026,-7.0705 -3.536,-3.536 -7.0705,7.07026 L -171.71476,120 Z"
         id="path2778" />
      <path
         id="lpe_path-effect2784"
         style="display:inline;fill:#000000;fill-opacity:1;stroke:none;stroke-width:5.01436;stroke-opacity:1;paint-order:markers fill stroke"
         class="powerclip"
         d="m -204.99999,105 h 80.71067 v 60 h -80.71067 z m 29.74899,18.53624 7.07038,7.07038 -7.07038,7.07038 3.53624,3.53624 7.07038,-7.07038 7.0705,7.07026 3.536,-3.536 -7.07026,-7.0705 7.07026,-7.0705 -3.536,-3.536 -7.0705,7.07026 L -171.71476,120 Z" />
    </clipPath>
  </defs>
  <g
     id="g28232"
     transform="translate(199.99998,-110)">
    <path
       style="fill:#666666;fill-opacity:1;stroke-width:0.143821"
       id="path167-3-7-1"
       mask="none"
       d="m -199.99999,124.64466 a 50,50 0 0 1 70.71067,0 L -164.64465,160 Z"
       clip-path="url(#clipPath2776)" />
    <path
       style="fill:#ffffff;stroke-width:0.143821"
       id="path167-3-6-5-2"
       mask="none"
       d="m -182.322,142.32233 a 25,25 0 0 1 35.35534,0 L -164.64433,160 Z"
       clip-path="url(#clipPath2772)" />
  </g>
</svg>
