<?xml version="1.0" encoding="UTF-8" standalone="no"?>
<svg
   width="70.710678mm"
   height="50.000004mm"
   viewBox="0 0 70.710678 50.000004"
   version="1.1"
   id="svg5"
   xmlns="http://www.w3.org/2000/svg"
   xmlns:svg="http://www.w3.org/2000/svg">
  <defs
     id="defs9">
    <clipPath
       clipPathUnits="userSpaceOnUse"
       id="clipPath2756">
      <path
         style="display:none;fill:#000000;fill-opacity:1;stroke:none;stroke-width:5.01436;stroke-opacity:1;paint-order:markers fill stroke"
         d="m -175.251,68.536241 7.07038,7.070378 -7.07038,7.070381 3.53624,3.536241 7.07038,-7.070381 7.0705,7.070262 3.536,-3.536003 -7.07026,-7.0705 7.07026,-7.0705 -3.536,-3.536 -7.0705,7.070259 L -171.71476,65 Z"
         id="path2758" />
      <path
         id="lpe_path-effect2764"
         style="display:inline;fill:#000000;fill-opacity:1;stroke:none;stroke-width:5.01436;stroke-opacity:1;paint-order:markers fill stroke"
         class="powerclip"
         d="m -196.16099,62.5 h 63.03301 V 110 h -63.03301 z m 20.90999,6.036241 7.07038,7.070378 -7.07038,7.070381 3.53624,3.536241 7.07038,-7.070381 7.0705,7.070262 3.536,-3.536003 -7.07026,-7.0705 7.07026,-7.0705 -3.536,-3.536 -7.0705,7.070259 L -171.71476,65 Z" />
    </clipPath>
    <clipPath
       clipPathUnits="userSpaceOnUse"
       id="clipPath2760">
      <path
         style="display:none;fill:#000000;fill-opacity:1;stroke:none;stroke-width:5.01436;stroke-opacity:1;paint-order:markers fill stroke"
         d="m -175.251,68.536241 7.07038,7.070378 -7.07038,7.070381 3.53624,3.536241 7.07038,-7.070381 7.0705,7.070262 3.536,-3.536003 -7.07026,-7.0705 7.07026,-7.0705 -3.536,-3.536 -7.0705,7.070259 L -171.71476,65 Z"
         id="path2762" />
      <path
         id="lpe_path-effect2768"
         style="display:inline;fill:#000000;fill-opacity:1;stroke:none;stroke-width:5.01436;stroke-opacity:1;paint-order:markers fill stroke"
         class="powerclip"
         d="m -204.99999,50 h 80.71067 v 60 h -80.71067 z m 29.74899,18.536241 7.07038,7.070378 -7.07038,7.070381 3.53624,3.536241 7.07038,-7.070381 7.0705,7.070262 3.536,-3.536003 -7.07026,-7.0705 7.07026,-7.0705 -3.536,-3.536 -7.0705,7.070259 L -171.71476,65 Z" />
    </clipPath>
  </defs>
  <g
     id="g28216"
     transform="translate(199.99998,-54.999998)">
    <path
       style="fill:#666666;fill-opacity:1;stroke-width:0.143821"
       id="path167-3-3"
       mask="none"
       d="m -199.99999,69.644662 a 50,50 0 0 1 70.71067,-3e-6 L -164.64465,105 Z"
       clip-path="url(#clipPath2760)" />
    <path
       style="fill:#ffffff;stroke-width:0.143821"
       id="path167-3-6-6"
       mask="none"
       d="m -191.16099,78.483496 a 37.5,37.5 0 0 1 53.03301,-10e-7 L -164.64449,105 Z"
       clip-path="url(#clipPath2756)" />
  </g>
</svg>
